{"title":"Solitary-S04E002-Fight.Club.avi","uid":5398777,"size":394927304,"categoryP":"video","categoryS":"tv_shows","magnet":"?xt=urn:btih:b376f0460a90dbfeaa29197f1999c95bdf442186&amp;dn=Solitary-S04E002-Fight.Club.avi&amp;tr=udp%3A%2F%2Ftracker.openbittorrent.com%3A80&amp;tr=udp%3A%2F%2Fopen.demonii.com%3A1337&amp;tr=udp%3A%2F%2Ftracker.coppersurfer.tk%3A6969&amp;tr=udp%3A%2F%2Fexodus.desync.com%3A6969","seeders":1,"leechers":0,"uploader":"pixiesmiles","files":-1,"time":1267341437,"description":"AND.... Here is episode 2.  As long as there is interest, I'll keep em coming as they become available. \n\nBe forewarned, my upload speed is NOT good, so please be patient.\n\nComments/feedback is always appreciated. :o)\n\n-pixie\n\nFormat                           : AVI\nFormat/Info                      : Audio Video Interleave\nFile size                        : 377 MiB\nDuration                         : 45mn 10s\nOverall bit rate                 : 1 166 Kbps\n\nVideo\nFormat                           : xvid\nCodec ID                         : xvid\nDuration                         : 45mn 9s\nBit rate                         : 1 024 Kbps\nWidth                            : 640 pixels\nHeight                           : 360 pixels\nDisplay aspect ratio             : 16:9\nFrame rate                       : 29.970 fps\nBits/(Pixel*Frame)               : 0.148\nStream size                      : 331 MiB (88%)\n\nAudio\nID                               : 1\nFormat                           : MPEG Audio\nFormat version                   : Version 1\nFormat profile                   : Layer 3\nMode                             : Joint stereo\nFormat_Settings_ModeExtension    : MS Stereo\nCodec ID                         : 55\nCodec ID/Hint                    : MP3\nDuration                         : 45mn 10s\nBit rate mode                    : Constant\nBit rate                         : 128 Kbps\nChannel(s)                       : 2 channels\nSampling rate                    : 48.0 KHz\nStream size                      : 41.4 MiB (11%)\nAlignment                        : Aligned on interleaves\nInterleave, duration             : 24 ms (0.72 video frame)\nWriting library                  : LAME3.97 (beta)\n\n","torrent":{"xt":"urn:btih:b376f0460a90dbfeaa29197f1999c95bdf442186","amp;dn":"Solitary-S04E002-Fight.Club.avi","amp;tr":["udp%3A%2F%2Ftracker.openbittorrent.com%3A80","udp%3A%2F%2Fopen.demonii.com%3A1337","udp%3A%2F%2Ftracker.coppersurfer.tk%3A6969","udp%3A%2F%2Fexodus.desync.com%3A6969"],"infoHash":"b376f0460a90dbfeaa29197f1999c95bdf442186","infoHashBuffer":{"type":"Buffer","data":[179,118,240,70,10,144,219,254,170,41,25,127,25,153,201,91,223,68,33,134]},"announce":[],"urlList":[]}}